<?xml version="1.0" encoding="UTF-8"?>
<!-- Generated by IcoMoon.io -->
<!DOCTYPE svg PUBLIC "-//W3C//DTD SVG 1.1//EN" "http://www.w3.org/Graphics/SVG/1.1/DTD/svg11.dtd">
<svg version="1.1" xmlns="http://www.w3.org/2000/svg" xmlns:xlink="http://www.w3.org/1999/xlink" width="512" height="512" viewBox="0 0 512 512">
<g>
</g>
	<path d="M86.814 59.617v292.823h338.381v-292.823h-338.381zM397.363 312.76h-282.716v-215.572h282.716v215.572z" fill="#fff"/>
	<path d="M248.34 331.602h16.722v40.601h-16.722v-40.601z" fill="#fff"/>
	<path d="M152.433 372.521h202.905v15.401h-202.905v-15.401z" fill="#fff"/>
	<path d="M39.752 451.298l43.397-47.575h349.89l39.199 48.661z" fill="#fff"/>
	<path d="M259.379 160.86c0-1.137-0.962-2.109-2.068-2.109h-3.82c-1.167 0-2.355-0.87-2.683-1.966l-5.222-12.165c-0.563-0.994-0.369-2.447 0.44-3.256l2.581-2.601c0.809-0.809 0.809-2.15 0-2.949l-6.195-6.215c-0.809-0.829-2.15-0.829-2.97 0l-2.796 2.816c-0.839 0.809-2.325 1.024-3.318 0.502l-10.547-4.219c-1.116-0.307-2.007-1.526-2.007-2.662v-3.901c0-1.126-0.963-2.089-2.089-2.089h-8.796c-1.147 0-2.109 0.953-2.109 2.089v3.901c0 1.136-0.87 2.365-1.987 2.683l-12.257 5.253c-0.994 0.594-2.447 0.389-3.277-0.399l-2.744-2.765c-0.809-0.819-2.13-0.819-2.929 0l-6.236 6.226c-0.788 0.819-0.788 2.14 0 2.939l2.97 3.021c0.87 0.798 1.065 2.284 0.522 3.287l-4.147 10.465c-0.297 1.126-1.495 1.997-2.642 1.997h-4.147c-1.147 0-2.078 0.973-2.078 2.109v8.796c0 1.137 0.932 2.069 2.078 2.069h4.147c1.137 0 2.345 0.901 2.693 2.007l5.11 12.022c0.573 1.004 0.379 2.458-0.42 3.287l-2.857 2.857c-0.829 0.798-0.829 2.13 0 2.949l6.215 6.226c0.829 0.829 2.15 0.829 2.949 0l3.062-3.052c0.809-0.819 2.274-1.044 3.308-0.482l10.66 4.25c1.116 0.307 1.987 1.516 1.987 2.662v4.076c0 1.167 0.963 2.089 2.109 2.089h8.796c1.126 0 2.089-0.922 2.089-2.089v-4.076c0-1.137 0.891-2.345 2.007-2.673l11.929-5.089c0.983-0.553 2.417-0.348 3.267 0.461l2.693 2.703c0.798 0.809 2.109 0.809 2.939 0l6.246-6.226c0.809-0.809 0.809-2.119 0-2.929l-2.867-2.877c-0.809-0.819-1.034-2.325-0.492-3.308l4.332-10.773c0.307-1.106 1.495-2.007 2.673-2.018h3.819c1.106 0 2.068-0.922 2.068-2.058l0.010-8.796zM214.119 180.132c-8.213 0-14.817-6.615-14.817-14.797 0-8.172 6.615-14.817 14.817-14.817 8.141 0 14.797 6.646 14.797 14.817 0 8.182-6.656 14.797-14.797 14.797z" fill="#fff"/>
	<path d="M339.159 207.216c-0.502-1.362-2.038-2.089-3.399-1.556l-4.577 1.649c-1.423 0.522-3.257-0.030-4.116-1.208l-11.582-12.309c-1.106-0.952-1.526-2.806-0.921-4.137l1.956-4.25c0.625-1.341 0.041-2.918-1.28-3.543l-10.199-4.751c-1.341-0.625-2.939-0.061-3.584 1.29l-2.12 4.598c-0.645 1.372-2.345 2.284-3.779 2.089l-14.541-0.451c-1.495 0.113-3.082-0.942-3.615-2.294l-1.7-4.71c-0.481-1.372-2.048-2.099-3.44-1.587l-10.567 3.861c-1.372 0.492-2.089 2.058-1.587 3.42l1.71 4.731c0.512 1.362-0.021 3.205-1.209 4.086l-12.391 11.694c-0.952 1.116-2.796 1.536-4.126 0.922l-4.506-2.109c-1.331-0.604-2.929-0.041-3.533 1.3l-4.762 10.22c-0.645 1.321-0.051 2.929 1.28 3.533l4.925 2.314c1.351 0.635 2.253 2.314 2.058 3.768l-0.41 14.398c0.154 1.485-0.911 3.082-2.325 3.584l-4.987 1.822c-1.372 0.492-2.069 2.048-1.577 3.43l3.901 10.578c0.482 1.392 2.018 2.089 3.399 1.608l4.987-1.843c1.372-0.481 3.226 0.031 4.086 1.219l11.428 12.237c1.168 0.962 1.557 2.775 0.962 4.137l-2.212 4.659c-0.604 1.341-0.051 2.908 1.29 3.543l10.23 4.762c1.341 0.604 2.908 0.041 3.543-1.3l2.334-4.976c0.645-1.341 2.325-2.263 3.779-2.038l14.704 0.44c1.464-0.123 3.082 0.921 3.584 2.314l1.782 4.905c0.502 1.413 2.038 2.099 3.42 1.577l10.578-3.861c1.382-0.481 2.099-2.017 1.618-3.42l-1.802-4.905c-0.502-1.362 0.062-3.205 1.239-4.086l12.124-11.336c0.983-1.086 2.796-1.515 4.137-0.891l4.444 2.079c1.321 0.625 2.918 0.041 3.543-1.3l4.752-10.23c0.645-1.321 0.041-2.908-1.28-3.543l-4.731-2.171c-1.321-0.625-2.243-2.325-2.027-3.779l0.461-14.848c-0.082-1.454 0.942-3.062 2.345-3.594l4.577-1.659c1.362-0.502 2.099-2.038 1.577-3.43l-3.87-10.649zM293.202 250.327c-9.861 3.574-20.716-1.495-24.32-11.326s1.485-20.736 11.305-24.299c9.851-3.594 20.716 1.454 24.3 11.305 3.594 9.81-1.464 20.715-11.284 24.32z" fill="#fff"/>
</svg>